{
  "source": "C:\\Users\\Peter\\Desktop\\stuff\\MIUN\\quantitative_research\\video_compression\\videos\\BVI-HD\\BVI-HD_CDVL_videos\\ORIG\\PaintingTilting_1920x1080_60fps.mp4",
  "output": "C:\\Users\\Peter\\Desktop\\stuff\\MIUN\\quantitative_research\\video_compression\\compressed_videos\\BVI-HD\\av1\\3\\PaintingTilting_1920x1080_60fps_av1.mkv",
  "codec": "av1",
  "ok": "Input #0, mov,mp4,m4a,3gp,3g2,mj2, from 'C:\\Users\\Peter\\Desktop\\stuff\\MIUN\\quantitative_research\\video_compression\\videos\\BVI-HD\\BVI-HD_CDVL_videos\\ORIG\\PaintingTilting_1920x1080_60fps.mp4':\n  Metadata:\n    major_brand     : isom\n    minor_version   : 512\n    compatible_brands: isomiso2avc1mp41\n    encoder         : Lavf54.28.101\n  Duration: 00:00:05.00, start: 0.000000, bitrate: 667707 kb/s\n  Stream #0:0[0x1](und): Video: h264 (High 4:4:4 Predictive) (avc1 / 0x31637661), yuv420p(progressive), 1920x1080, 667702 kb/s, 60 fps, 60 tbr, 60 tbn (default)\n    Metadata:\n      handler_name    : VideoHandler\n      vendor_id       : [0][0][0][0]\n[out#0/matroska @ 00000200c9e89000] Codec AVOption b:a (set bitrate (in bits/s)) has not been used for any stream. The most likely reason is either wrong type (e.g. a video option with no video streams) or that it is a private option of some decoder which was not actually used for any stream.\nStream mapping:\n  Stream #0:0 -> #0:0 (h264 (native) -> av1 (libsvtav1))\nPress [q] to stop, [?] for help\nSvt[info]: -------------------------------------------\nSvt[info]: SVT [version]:\tSVT-AV1 Encoder Lib v3.1.0-19-g6ecfe8ec\nSvt[info]: SVT [build]  :\tGCC 15.2.0\t 64 bit\nSvt[info]: LIB Build date: Aug 17 2025 11:37:13\nSvt[info]: -------------------------------------------\nSvt[info]: Level of Parallelism: 5\nSvt[info]: Number of PPCS 93\nSvt[info]: [asm level on system : up to avx2]\nSvt[info]: [asm level selected : up to avx2]\nSvt[info]: -------------------------------------------\nSvt[info]: SVT [config]: main profile\ttier (auto)\tlevel (auto)\nSvt[info]: SVT [config]: width / height / fps numerator / fps denominator \t\t: 1920 / 1080 / 60 / 1\nSvt[info]: SVT [config]: bit-depth / color format \t\t\t\t\t: 8 / YUV420\nSvt[info]: SVT [config]: preset / tune / pred struct \t\t\t\t\t: 4 / PSNR / random access\nSvt[info]: SVT [config]: gop size / mini-gop size / key-frame type \t\t\t: 321 / 16 / key frame\nSvt[info]: SVT [config]: BRC mode / target bitrate (kbps)\t\t\t\t: VBR / 3000 \nSvt[info]: SVT [config]: AQ mode / Variance Boost \t\t\t\t\t: 2 / 0\nSvt[info]: SVT [config]: sharpness / luminance-based QP bias \t\t\t\t: 0 / 0\nSvt[info]: SVT [config]: QP scale compress strength \t\t\t\t\t: 0\nSvt[info]: -------------------------------------------\nOutput #0, matroska, to 'C:\\Users\\Peter\\Desktop\\stuff\\MIUN\\quantitative_research\\video_compression\\compressed_videos\\BVI-HD\\av1\\3\\PaintingTilting_1920x1080_60fps_av1.mkv':\n  Metadata:\n    major_brand     : isom\n    minor_version   : 512\n    compatible_brands: isomiso2avc1mp41\n    encoder         : Lavf62.3.100\n  Stream #0:0(und): Video: av1 (AV01 / 0x31305641), yuv420p(tv, progressive), 1920x1080, q=2-31, 3000 kb/s, 60 fps, 1k tbn (default)\n    Metadata:\n      encoder         : Lavc62.11.100 libsvtav1\n      handler_name    : VideoHandler\n      vendor_id       : [0][0][0][0]\n    Side data:\n      cpb: bitrate max/min/avg: 0/0/3000000 buffer size: 3000000 vbv_delay: N/A\nframe=    0 fps=0.0 q=0.0 size=       0KiB time=N/A bitrate=N/A speed=N/A elapsed=0:00:01.08    \nframe=    0 fps=0.0 q=0.0 size=       0KiB time=N/A bitrate=N/A speed=N/A elapsed=0:00:01.66    \nframe=    0 fps=0.0 q=0.0 size=       0KiB time=N/A bitrate=N/A speed=N/A elapsed=0:00:02.34    \nframe=    0 fps=0.0 q=0.0 size=       0KiB time=N/A bitrate=N/A speed=N/A elapsed=0:00:02.90    \nframe=    0 fps=0.0 q=0.0 size=       0KiB time=N/A bitrate=N/A speed=N/A elapsed=0:00:03.49    \nframe=    0 fps=0.0 q=0.0 size=       0KiB time=N/A bitrate=N/A speed=N/A elapsed=0:00:04.10    \nframe=    0 fps=0.0 q=0.0 size=       0KiB time=N/A bitrate=N/A speed=N/A elapsed=0:00:04.64    \nframe=    0 fps=0.0 q=0.0 size=       0KiB time=N/A bitrate=N/A speed=N/A elapsed=0:00:05.19    \nframe=    0 fps=0.0 q=0.0 size=       0KiB time=N/A bitrate=N/A speed=N/A elapsed=0:00:05.75    \nframe=    1 fps=0.2 q=22.0 size=       1KiB time=00:00:00.00 bitrate=N/A speed=   0x elapsed=0:00:06.27    \nframe=    2 fps=0.3 q=48.0 size=       1KiB time=00:00:00.01 bitrate= 341.8kbits/s speed=0.00245x elapsed=0:00:06.79    \nframe=    7 fps=1.0 q=44.0 size=       1KiB time=00:00:00.10 bitrate=  57.0kbits/s speed=0.0136x elapsed=0:00:07.33    \nframe=   13 fps=1.6 q=43.0 size=       1KiB time=00:00:00.20 bitrate=  28.5kbits/s speed=0.0253x elapsed=0:00:07.89    \nframe=   20 fps=2.4 q=43.0 size=       1KiB time=00:00:00.30 bitrate=  19.0kbits/s speed=0.0356x elapsed=0:00:08.43    \nframe=   25 fps=2.8 q=35.0 size=       1KiB time=00:00:00.40 bitrate=  14.2kbits/s speed=0.0444x elapsed=0:00:09.01    \nframe=   31 fps=3.2 q=39.0 size=       1KiB time=00:00:00.50 bitrate=  11.4kbits/s speed=0.0523x elapsed=0:00:09.55    \nframe=   39 fps=3.8 q=42.0 size=       1KiB time=00:00:00.63 bitrate=   9.0kbits/s speed=0.0623x elapsed=0:00:10.16    \nframe=   45 fps=4.2 q=36.0 size=       1KiB time=00:00:00.73 bitrate=   7.8kbits/s speed=0.0685x elapsed=0:00:10.70    \nframe=   52 fps=4.6 q=42.0 size=       1KiB time=00:00:00.85 bitrate=   6.7kbits/s speed=0.0756x elapsed=0:00:11.24    \nframe=   58 fps=4.9 q=40.0 size=       1KiB time=00:00:00.95 bitrate=   6.0kbits/s speed=0.0805x elapsed=0:00:11.80    \nframe=   64 fps=5.2 q=39.0 size=       1KiB time=00:00:01.05 bitrate=   5.4kbits/s speed=0.0848x elapsed=0:00:12.38    \nframe=   70 fps=5.4 q=34.0 size=       1KiB time=00:00:01.15 bitrate=   5.0kbits/s speed=0.0887x elapsed=0:00:12.96    \nframe=   76 fps=5.6 q=32.0 size=       1KiB time=00:00:01.23 bitrate=   4.6kbits/s speed=0.0913x elapsed=0:00:13.51    \nframe=   82 fps=5.8 q=33.0 size=       1KiB time=00:00:01.33 bitrate=   4.3kbits/s speed=0.0945x elapsed=0:00:14.11    \nframe=   86 fps=5.9 q=32.0 size=       1KiB time=00:00:01.41 bitrate=   4.0kbits/s speed=0.0965x elapsed=0:00:14.68    \nframe=   91 fps=6.0 q=29.0 size=       1KiB time=00:00:01.48 bitrate=   3.8kbits/s speed=0.0974x elapsed=0:00:15.23    \nframe=   98 fps=6.2 q=36.0 size=       1KiB time=00:00:01.60 bitrate=   3.6kbits/s speed=0.101x elapsed=0:00:15.79    \nframe=  103 fps=6.3 q=38.0 size=       1KiB time=00:00:01.70 bitrate=   3.4kbits/s speed=0.104x elapsed=0:00:16.37    \nframe=  109 fps=6.4 q=28.0 size=       1KiB time=00:00:01.78 bitrate=   3.2kbits/s speed=0.105x elapsed=0:00:16.90    \nframe=  114 fps=6.5 q=34.0 size=       1KiB time=00:00:01.86 bitrate=   3.1kbits/s speed=0.107x elapsed=0:00:17.50    \nframe=  118 fps=6.5 q=34.0 size=       1KiB time=00:00:01.95 bitrate=   2.9kbits/s speed=0.108x elapsed=0:00:18.06    \nframe=  123 fps=6.6 q=31.0 size=       1KiB time=00:00:02.03 bitrate=   2.8kbits/s speed=0.109x elapsed=0:00:18.59    \nframe=  129 fps=6.7 q=21.0 size=       1KiB time=00:00:02.13 bitrate=   2.7kbits/s speed=0.111x elapsed=0:00:19.15    \nframe=  135 fps=6.8 q=34.0 size=       1KiB time=00:00:02.23 bitrate=   2.6kbits/s speed=0.113x elapsed=0:00:19.70    \nframe=  140 fps=6.9 q=30.0 size=       1KiB time=00:00:02.30 bitrate=   2.5kbits/s speed=0.113x elapsed=0:00:20.30    \nframe=  145 fps=6.9 q=19.0 size=       1KiB time=00:00:02.40 bitrate=   2.4kbits/s speed=0.115x elapsed=0:00:20.88    \nframe=  150 fps=7.0 q=33.0 size=       1KiB time=00:00:02.48 bitrate=   2.3kbits/s speed=0.116x elapsed=0:00:21.44    \nframe=  155 fps=7.1 q=31.0 size=       1KiB time=00:00:02.56 bitrate=   2.2kbits/s speed=0.117x elapsed=0:00:21.97    \nframe=  160 fps=7.1 q=32.0 size=       1KiB time=00:00:02.63 bitrate=   2.2kbits/s speed=0.117x elapsed=0:00:22.50    \nframe=  166 fps=7.2 q=34.0 size=       1KiB time=00:00:02.75 bitrate=   2.1kbits/s speed=0.119x elapsed=0:00:23.07    \nframe=  170 fps=7.2 q=34.0 size=       1KiB time=00:00:02.81 bitrate=   2.0kbits/s speed=0.119x elapsed=0:00:23.61    \nframe=  175 fps=7.2 q=30.0 size=       1KiB time=00:00:02.90 bitrate=   2.0kbits/s speed=0.12x elapsed=0:00:24.13    \nframe=  180 fps=7.3 q=33.0 size=       1KiB time=00:00:02.98 bitrate=   1.9kbits/s speed=0.121x elapsed=0:00:24.67    \nframe=  184 fps=7.3 q=31.0 size=       1KiB time=00:00:03.05 bitrate=   1.9kbits/s speed=0.121x elapsed=0:00:25.21    \nframe=  191 fps=7.4 q=31.0 size=       1KiB time=00:00:03.15 bitrate=   1.8kbits/s speed=0.122x elapsed=0:00:25.75    \nframe=  198 fps=7.5 q=34.0 size=       1KiB time=00:00:03.28 bitrate=   1.7kbits/s speed=0.125x elapsed=0:00:26.29    \nframe=  202 fps=7.5 q=34.0 size=       1KiB time=00:00:03.35 bitrate=   1.7kbits/s speed=0.125x elapsed=0:00:26.82    \nframe=  209 fps=7.6 q=20.0 size=       1KiB time=00:00:03.46 bitrate=   1.6kbits/s speed=0.127x elapsed=0:00:27.34    \nframe=  213 fps=7.6 q=30.0 size=       1KiB time=00:00:03.53 bitrate=   1.6kbits/s speed=0.127x elapsed=0:00:27.89    \nframe=  217 fps=7.6 q=28.0 size=       1KiB time=00:00:03.60 bitrate=   1.6kbits/s speed=0.127x elapsed=0:00:28.45    \nframe=  223 fps=7.7 q=30.0 size=       1KiB time=00:00:03.70 bitrate=   1.5kbits/s speed=0.127x elapsed=0:00:29.07    \nframe=  229 fps=7.7 q=30.0 size=       1KiB time=00:00:03.80 bitrate=   1.5kbits/s speed=0.128x elapsed=0:00:29.61    \nframe=  233 fps=7.7 q=27.0 size=       1KiB time=00:00:03.86 bitrate=   1.5kbits/s speed=0.128x elapsed=0:00:30.18    \nframe=  235 fps=7.6 q=31.0 size=       1KiB time=00:00:03.86 bitrate=   1.5kbits/s speed=0.125x elapsed=0:00:30.82    \nframe=  239 fps=7.6 q=30.0 size=       1KiB time=00:00:03.96 bitrate=   1.4kbits/s speed=0.126x elapsed=0:00:31.41    \nframe=  243 fps=7.6 q=32.0 size=       1KiB time=00:00:04.03 bitrate=   1.4kbits/s speed=0.126x elapsed=0:00:32.04    \nframe=  249 fps=7.6 q=27.0 size=       1KiB time=00:00:04.13 bitrate=   1.4kbits/s speed=0.127x elapsed=0:00:32.57    \nframe=  251 fps=7.6 q=32.0 size=       1KiB time=00:00:04.16 bitrate=   1.4kbits/s speed=0.126x elapsed=0:00:33.13    \nframe=  255 fps=7.6 q=30.0 size=       1KiB time=00:00:04.23 bitrate=   1.3kbits/s speed=0.126x elapsed=0:00:33.71    \nframe=  261 fps=7.6 q=30.0 size=       1KiB time=00:00:04.33 bitrate=   1.3kbits/s speed=0.126x elapsed=0:00:34.31    \nframe=  265 fps=7.6 q=27.0 size=       1KiB time=00:00:04.40 bitrate=   1.3kbits/s speed=0.126x elapsed=0:00:34.87    \nframe=  273 fps=7.7 q=19.0 size=       1KiB time=00:00:04.53 bitrate=   1.3kbits/s speed=0.128x elapsed=0:00:35.39    \nframe=  281 fps=7.8 q=32.0 size=       1KiB time=00:00:04.66 bitrate=   1.2kbits/s speed=0.13x elapsed=0:00:35.91    \n[out#0/matroska @ 00000200c9e89000] video:1282KiB audio:0KiB subtitle:0KiB other streams:0KiB global headers:0KiB muxing overhead: 0.161949%\nframe=  300 fps=8.2 q=36.0 Lsize=    1284KiB time=00:00:04.98 bitrate=2110.8kbits/s speed=0.137x elapsed=0:00:36.39    \n",
  "seconds": 37.11534833908081,
  "probe_out": {}
}